<?xml version="1.0" encoding="iso-8859-1"?>
<!-- Generator: Adobe Illustrator 19.0.0, SVG Export Plug-In . SVG Version: 6.00 Build 0)  -->
<svg version="1.1" id="Capa_1" xmlns="http://www.w3.org/2000/svg" xmlns:xlink="http://www.w3.org/1999/xlink" x="0px" y="0px"
	 viewBox="0 0 475.336 475.336" style="enable-background:new 0 0 475.336 475.336;" xml:space="preserve">
<g>
	<g>
		<path d="M398.359,135.04C398.359,135.04,398.358,135.039,398.359,135.04l-54.064-54.064c-25.75-25.75-67.498-25.75-93.248,0
			c0,0,0,0,0,0L55.974,276.063c-6.81,6.776-10.629,15.993-10.608,25.6c-0.021,9.607,3.798,18.824,10.608,25.6l96.096,96.096
			c14.145,14.123,37.055,14.123,51.2,0l195.088-195.072C424.108,202.538,424.108,160.789,398.359,135.04z M332.982,92.287l1.6,1.6
			c-5.796,5.043-13.229,7.807-20.912,7.776c-13.773-0.021-25.992-8.839-30.352-21.904C300.917,74.497,319.985,79.307,332.982,92.287
			z M68.126,316.839l-0.872-0.872c-7.876-7.912-7.869-20.705,0.016-28.608l0.856-0.856
			C75.486,295.276,75.486,308.067,68.126,316.839z M191.974,412.079c-7.912,7.876-20.705,7.869-28.608-0.016l-0.856-0.856
			c8.773-7.36,21.563-7.36,30.336,0L191.974,412.079z M387.046,216.975L204.238,399.783c-15.148-13.487-37.996-13.487-53.144,0
			L79.55,328.239c13.487-15.148,13.487-37.996,0-53.144L262.358,92.287c2.048-2.024,4.264-3.871,6.624-5.52
			c7.074,18.549,24.836,30.829,44.688,30.896c11.919,0.028,23.413-4.427,32.2-12.48l28.28,28.272
			c-8.053,8.79-12.507,20.287-12.48,32.208c0.067,19.852,12.347,37.614,30.896,44.688
			C390.921,212.715,389.074,214.931,387.046,216.975z M377.67,165.663c-0.017-7.676,2.762-15.095,7.816-20.872l1.6,1.6
			c9.372,9.341,14.622,22.04,14.584,35.272c0.007,4.876-0.7,9.728-2.096,14.4C386.499,191.69,377.68,179.451,377.67,165.663z"/>
	</g>
</g>
<g>
	<g>
		<path d="M328.646,241.727c-21.662-37.91-53.074-69.333-90.976-91.008c-3.1-1.949-7.154-1.382-9.6,1.344l-0.088-0.088l-128,128
			l0.04,0.04c-0.651,0.604-1.192,1.316-1.6,2.104c-1.163,2.379-1.073,5.18,0.24,7.48c21.671,37.914,53.094,69.337,91.008,91.008
			c3.12,1.836,7.092,1.29,9.6-1.32l128-128v-0.024C329.972,248.834,330.551,244.821,328.646,241.727z M218.91,183.735l-8.44,33.816
			l-24.8,24.8l-12.688-12.688L218.91,183.735z M161.67,240.975l12.688,12.688l-16.456,16.456l-29.6,4.232L161.67,240.975z
			 M187.462,360.543c-27.543-17.711-50.961-41.129-68.672-68.672l40.048-5.72l34.344,34.344L187.462,360.543z M172.982,277.663
			l44.688-44.688l28.688,28.688l-44.688,44.688L172.982,277.663z M204.99,351.031l4.2-29.6l16.48-16.456l12.688,12.688
			L204.99,351.031z M249.67,306.351l-12.688-12.688l24.8-24.8l33.832-8.456L249.67,306.351z M260.126,252.807l-33.6-33.6
			l12.288-49.112c28.359,18.022,52.401,42.069,70.416,70.432L260.126,252.807z"/>
	</g>
</g>
<g>
	<g>
		<rect x="77.68" y="376.701" transform="matrix(0.7071 -0.7071 0.7071 0.7071 -253.274 175.8891)" width="16" height="33.944"/>
	</g>
</g>
<g>
	<g>
		<rect x="53.666" y="389.376" transform="matrix(0.7071 -0.7071 0.7071 0.7071 -277.2662 165.933)" width="16" height="56.56"/>
	</g>
</g>
<g>
	<g>
		<rect x="29.669" y="402.028" transform="matrix(0.7071 -0.7071 0.7071 0.7071 -301.2428 155.9845)" width="16" height="79.192"/>
	</g>
</g>
<g>
	<g>
		<rect x="381.673" y="64.716" transform="matrix(0.7071 -0.7071 0.7071 0.7071 56.3712 299.4674)" width="16" height="33.944"/>
	</g>
</g>
<g>
	<g>
		<rect x="405.665" y="29.378" transform="matrix(0.7071 -0.7071 0.7071 0.7071 80.3885 309.392)" width="16" height="56.56"/>
	</g>
</g>
<g>
	<g>
		<rect x="429.668" y="-5.941" transform="matrix(0.7071 -0.7071 0.7071 0.7071 104.3918 319.3353)" width="16" height="79.192"/>
	</g>
</g>
<g>
	<g>
		<rect x="294.357" y="357.661" transform="matrix(0.7071 -0.7071 0.7071 0.7071 -169.0334 323.2392)" width="22.624" height="16"/>
	</g>
</g>
<g>
	<g>
		<rect x="306.997" y="381.67" transform="matrix(0.7071 -0.7071 0.7071 0.7071 -178.9933 347.212)" width="45.256" height="16"/>
	</g>
</g>
<g>
	<g>
		<rect x="319.728" y="405.664" transform="matrix(0.7071 -0.7071 0.7071 0.7071 -188.9178 371.2411)" width="67.88" height="16"/>
	</g>
</g>
<g>
	<g>
		<rect x="332.403" y="429.678" transform="matrix(0.7071 -0.7071 0.7071 0.7071 -198.8715 395.2386)" width="90.512" height="16"/>
	</g>
</g>
<g>
	<g>
		<rect x="110.363" y="165.661" transform="matrix(0.7071 -0.7071 0.7071 0.7071 -87.1587 136.9014)" width="22.624" height="16"/>
	</g>
</g>
<g>
	<g>
		<rect x="75.045" y="141.658" transform="matrix(0.7071 -0.7071 0.7071 0.7071 -77.2163 112.8988)" width="45.256" height="16"/>
	</g>
</g>
<g>
	<g>
		<rect x="39.73" y="117.663" transform="matrix(0.7071 -0.7071 0.7071 0.7071 -67.2801 88.8984)" width="67.88" height="16"/>
	</g>
</g>
<g>
	<g>
		<rect x="4.411" y="93.661" transform="matrix(0.7071 -0.7071 0.7071 0.7071 -57.3377 64.8959)" width="90.512" height="16"/>
	</g>
</g>
<g>
</g>
<g>
</g>
<g>
</g>
<g>
</g>
<g>
</g>
<g>
</g>
<g>
</g>
<g>
</g>
<g>
</g>
<g>
</g>
<g>
</g>
<g>
</g>
<g>
</g>
<g>
</g>
<g>
</g>
</svg>
