<?xml version="1.0"?>
<svg xmlns="http://www.w3.org/2000/svg" xmlns:xlink="http://www.w3.org/1999/xlink" xmlns:svgjs="http://svgjs.com/svgjs" version="1.1" width="512" height="512" x="0" y="0" viewBox="0 0 505.08 505.08" style="enable-background:new 0 0 512 512" xml:space="preserve" class=""><g><path xmlns="http://www.w3.org/2000/svg" d="m327.719 172.175h-150.358c-2.859 0-5.187 2.327-5.187 5.187v150.357c0 2.86 2.327 5.187 5.187 5.187h150.357c2.859 0 5.187-2.327 5.187-5.187v-150.358c0-2.86-2.327-5.186-5.186-5.186z" fill="#444054" data-original="#000000" style="" class=""/><path xmlns="http://www.w3.org/2000/svg" d="m489.08 218.065c8.837 0 16-7.164 16-16s-7.163-16-16-16h-51.249v-32.949h51.249c8.837 0 16-7.164 16-16s-7.163-16-16-16h-51.79c-3.617-27.712-25.615-49.71-53.327-53.326v-51.79c0-8.836-7.163-16-16-16s-16 7.164-16 16v51.25h-32.949v-51.25c0-8.836-7.163-16-16-16s-16 7.164-16 16v51.25h-68.949v-51.25c0-8.836-7.163-16-16-16s-16 7.164-16 16v51.25h-32.949v-51.25c0-8.836-7.163-16-16-16s-16 7.164-16 16v51.79c-27.712 3.616-49.71 25.614-53.327 53.326h-51.789c-8.837 0-16 7.164-16 16s7.163 16 16 16h51.249v32.949h-51.249c-8.837 0-16 7.164-16 16s7.163 16 16 16h51.249v68.95h-51.249c-8.837 0-16 7.164-16 16s7.163 16 16 16h51.249v32.949h-51.249c-8.837 0-16 7.164-16 16s7.163 16 16 16h51.79c3.617 27.712 25.615 49.71 53.327 53.326v51.79c0 8.836 7.163 16 16 16s16-7.164 16-16v-51.25h32.949v51.25c0 8.836 7.163 16 16 16s16-7.164 16-16v-51.25h68.949v51.25c0 8.836 7.163 16 16 16s16-7.164 16-16v-51.25h32.949v51.25c0 8.836 7.163 16 16 16s16-7.164 16-16v-51.79c27.712-3.616 49.71-25.615 53.327-53.326h51.79c8.837 0 16-7.164 16-16s-7.163-16-16-16h-51.249v-32.949h51.249c8.837 0 16-7.164 16-16s-7.163-16-16-16h-51.249v-68.95zm-124.175 109.654c0 20.505-16.682 37.187-37.187 37.187h-150.357c-20.505 0-37.187-16.682-37.187-37.187v-150.358c0-20.505 16.682-37.187 37.187-37.187h150.357c20.505 0 37.187 16.682 37.187 37.187z" fill="#444054" data-original="#000000" style="" class=""/></g></svg>
