<svg height="512pt" viewBox="0 0 512 512" width="512pt" xmlns="http://www.w3.org/2000/svg"><path d="m512 256c0 141.386719-114.613281 256-256 256s-256-114.613281-256-256 114.613281-256 256-256 256 114.613281 256 256zm0 0" fill="#00dfc1"/><path d="m511.308594 274.800781-64.996094-64.996093c-6.949219-7.703126-15.933594-14.910157-26.828125-21.480469l-117.609375-117.644531c-13.796875-14.507813-29.394531-22.179688-45.875-22.179688-28.578125 0-54.5 23.035156-72.988281 64.863281-6.257813 14.152344-11.472657 29.988281-15.566407 47.03125-19.738281 4.300781-38 10.066407-54.082031 17.175781-41.828125 18.492188-64.863281 44.414063-64.863281 72.992188 0 16.304688 7.742188 32.242188 22.394531 46.09375l122.785157 122.6875c6.367187 10.582031 13.332031 19.371094 20.773437 26.246094l65.339844 65.300781c124.050781-11.4375 222.460937-111.363281 231.515625-236.089844zm0 0" fill="#00ad95"/><path d="m398.636719 177.570312c-38.320313-16.941406-88.976563-26.273437-142.636719-26.273437s-104.3125 9.332031-142.636719 26.273437c-41.828125 18.492188-64.863281 44.414063-64.863281 72.992188 0 16.304688 7.742188 32.242188 22.394531 46.09375 12.941407 12.238281 30.941407 22.8125 53.492188 31.429688l9.636719-25.222657c-36.644532-14.003906-58.523438-33.554687-58.523438-52.300781 0-34.179688 74.128906-72.265625 180.5-72.265625s180.5 38.085937 180.5 72.265625c0 33.511719-71.277344 70.777344-174.332031 72.214844v-21.992188l-49.289063 35.539063 49.289063 35.539062v-22.085937c51.363281-.6875 99.617187-9.933594 136.46875-26.226563 41.828125-18.488281 64.863281-44.410156 64.863281-72.988281s-23.035156-54.5-64.863281-72.992188zm0 0" fill="#9331b2"/><path d="m463.5 250.558594c0 28.582031-23.039062 54.5-64.859375 72.992187-36.851563 16.289063-85.109375 25.539063-136.46875 26.230469v22.078125l-6.171875-4.449219v-62.179687l6.171875-4.449219v22c103.046875-1.441406 174.328125-38.710938 174.328125-72.222656 0-22.757813-32.871094-47.25-86.230469-61.058594-8.910156-2.320312-18.390625-4.328125-28.390625-5.980469-20.050781-3.328125-42.160156-5.21875-65.878906-5.21875v-27c20.371094 0 40.308594 1.339844 59.300781 3.9375 10.039063 1.371094 19.808594 3.089844 29.25 5.160157 19.738281 4.292968 38.007813 10.0625 54.089844 17.171874 41.820313 18.488282 64.859375 44.410157 64.859375 72.988282zm0 0" fill="#5c1b6f"/><path d="m341.761719 295.121094 35.539062-49.289063h-22.152343c-1.101563-49.863281-10.289063-96.574219-26.160157-132.46875-18.488281-41.828125-44.410156-64.863281-72.988281-64.863281s-54.5 23.035156-72.988281 64.863281c-16.945313 38.324219-26.273438 88.980469-26.273438 142.636719s9.328125 104.3125 26.273438 142.636719c18.488281 41.828125 44.410156 64.863281 72.988281 64.863281 18.65625 0 36.558594-9.996094 51.773438-28.914062 13.273437-16.503907 24.605468-39.988282 32.769531-67.917969l-25.914063-7.574219c-13.75 47.019531-36.761718 77.40625-58.628906 77.40625-34.179688 0-72.261719-74.128906-72.261719-180.5s38.082031-180.5 72.261719-180.5c33.078125 0 69.8125 69.4375 72.144531 170.332031h-21.921875zm0 0" fill="#fff"/><g fill="#fff5cb"><path d="m314.628906 359.089844 25.910156 7.582031c-8.160156 27.929687-19.5 51.40625-32.769531 67.917969-15.210937 18.910156-33.109375 28.910156-51.769531 28.910156v-27c21.871094 0 44.878906-30.378906 58.628906-77.410156zm0 0"/><path d="m377.300781 245.828125-35.539062 49.292969-35.542969-49.292969h21.921875c-.519531-22.46875-2.742187-43.378906-6.261719-62.308594-1.847656-10-4.058594-19.449219-6.578125-28.28125-14.070312-49.519531-37.480469-79.738281-59.300781-79.738281v-27c28.578125 0 54.5 23.039062 72.988281 64.859375 6.25 14.160156 11.472657 29.992187 15.5625 47.039063 2.257813 9.363281 4.167969 19.082031 5.71875 29.101562 2.800781 18 4.449219 36.921875 4.878907 56.328125zm0 0"/></g></svg>