<svg id="Layer_1" enable-background="new 0 0 512 512" height="512" viewBox="0 0 512 512" width="512" xmlns="http://www.w3.org/2000/svg"><g><path d="m223.87 431.686c-25.989 0-47.133-21.144-47.133-47.133 0-33.598 29.535-123.173 32.903-133.277 2.042-6.125 7.773-10.256 14.23-10.256s12.188 4.131 14.23 10.256c3.368 10.104 32.903 99.679 32.903 133.277 0 25.989-21.144 47.133-47.133 47.133z" fill="#003c50"/><g><path d="m336.106 271.575c-11.375-19.659-27.784-36.071-47.454-47.462-7.161-4.147-9.61-13.312-5.474-20.479l55.44-96.05c3.809-6.6 11.961-9.294 18.952-6.266 45.152 19.555 83.566 51.552 111.091 92.531 2.316 3.449 3.099 7.704 2.16 11.751-.938 4.048-3.514 7.524-7.112 9.602l-107.12 61.85c-8.201 4.738-16.962.607-20.483-5.477z" fill="#ff1e5a"/><path d="m79.271 351.353h-64.271c-8.284 0-15-6.716-15-15 0-39.626 8.827-77.628 26.235-112.951 3.843-7.793 13.467-10.683 20.953-6.36l58.96 34.03c7.185 4.147 9.635 13.342 5.479 20.514-11.355 19.588-17.357 41.984-17.357 64.767.001 8.284-6.715 15-14.999 15z" fill="#9bff00"/><path d="m138.592 218.636-39.37-68.15c-3.807-6.589-2.076-14.984 4.025-19.531 34.77-25.912 75.795-42.628 118.641-48.341 8.995-1.199 16.982 5.807 16.982 14.868v94.27c0 8.284-6.716 15-15 15-22.773 0-45.171 6.002-64.77 17.359-7.095 4.109-16.311 1.792-20.508-5.475z" fill="#ffe600"/><path d="m288.652 224.113c-19.618-11.358-42.019-17.36-64.782-17.36l-1.982-124.138c61.83-8.297 110.256 7.698 135.684 18.704z" fill="#ffaa32"/><path d="m497 351.353h-128.53c-8.284 0-15-6.716-15-15 0-22.783-6.008-45.19-17.363-64.778l132.556-77.726c28.351 42.219 43.337 91.497 43.337 142.504 0 8.284-6.716 15-15 15z" fill="#c40050"/><path d="m26.235 223.401c17.879-36.275 44.511-68.244 77.016-92.45l55.842 93.164c-19.676 11.386-36.093 27.81-47.465 47.47z" fill="#00d200"/></g><path d="m223.87 431.686v-190.667c6.457 0 12.188 4.131 14.23 10.256 3.368 10.104 32.903 99.679 32.903 133.277 0 25.99-21.144 47.134-47.133 47.134z" fill="#001428"/></g></svg>