<?xml version="1.0"?>
<svg xmlns="http://www.w3.org/2000/svg" xmlns:xlink="http://www.w3.org/1999/xlink" xmlns:svgjs="http://svgjs.com/svgjs" version="1.1" width="512" height="512" x="0" y="0" viewBox="0 0 512.00072 512" style="enable-background:new 0 0 512 512" xml:space="preserve" class=""><g><path xmlns="http://www.w3.org/2000/svg" d="m256 0c-138.984375 0-252.113281 110.714844-255.99609375 248.761719-.11328125 4.023437 3.13671875 7.339843 7.16015575 7.339843h22.066407c1.105469-124.308593 102.203125-224.738281 226.769531-224.738281s225.664062 100.433594 226.773438 224.738281h22.0625c4.023437 0 7.273437-3.316406 7.160156-7.339843-3.882813-138.046875-117.007813-248.761719-255.996094-248.761719zm0 0" fill="#444054" data-original="#ff6b6b" style="" class=""/><path xmlns="http://www.w3.org/2000/svg" d="m27.144531 248.761719c3.753907-133.523438 109.71875-241.472657 242.425781-248.402344-4.492187-.234375-9.015624-.359375-13.570312-.359375-138.984375 0-252.113281 110.714844-255.99609375 248.761719-.11328125 4.023437 3.13671875 7.339843 7.16015575 7.339843h22.066407c.003906-.691406.03125-1.378906.042969-2.070312-1.359376-1.335938-2.1875-3.207031-2.128907-5.269531zm0 0" fill="#656172" data-original="#ee5253" style="" class=""/><path xmlns="http://www.w3.org/2000/svg" d="m256 29.300781c-125.257812 0-226.796875 101.542969-226.796875 226.800781h153.929687c3.71875 0 6.761719 2.851563 7.128907 6.550782 3.289062 33.410156 31.464843 59.511718 65.738281 59.511718s62.453125-26.101562 65.742188-59.511718c.363281-3.699219 3.410156-6.550782 7.125-6.550782h153.933593c-.003906-125.257812-101.542969-226.800781-226.800781-226.800781zm0 0" fill="#e4eaf8" data-original="#e4eaf8" style=""/><path xmlns="http://www.w3.org/2000/svg" d="m271.59375 29.847656c-5.152344-.351562-10.351562-.546875-15.59375-.546875-125.257812 0-226.796875 101.542969-226.796875 226.800781h31.1875c0-120.015624 93.222656-218.242187 211.203125-226.253906zm0 0" fill="#d8dce5" data-original="#d8dce5" style=""/><path xmlns="http://www.w3.org/2000/svg" d="m322.039062 167.507812-39.695312 68.753907c-5.265625-6.976563-13.34375-11.855469-22.523438-12.914063l39.734376-68.824218c-13.363282-5.738282-28.085938-8.921876-43.554688-8.921876-61.027344 0-110.5 49.472657-110.5 110.5h37.632812c3.71875 0 6.761719 2.851563 7.128907 6.554688 3.289062 33.40625 31.464843 59.507812 65.738281 59.507812s62.453125-26.101562 65.742188-59.507812c.363281-3.703125 3.410156-6.554688 7.125-6.554688h37.632812c0-36.265624-17.476562-68.445312-44.460938-88.59375zm0 0" fill="#d8dce5" data-original="#d8dce5" style=""/><path xmlns="http://www.w3.org/2000/svg" d="m221.445312 262.65625c-.363281-3.703125-3.40625-6.554688-7.125-6.554688h-31.1875c3.71875 0 6.761719 2.851563 7.128907 6.554688 3.289062 33.40625 31.464843 59.507812 65.738281 59.507812 5.371094 0 10.59375-.644531 15.59375-1.851562-26.902344-6.511719-47.371094-29.484375-50.148438-57.65625zm0 0" fill="#cacfd8" data-original="#cacfd8" style=""/><path xmlns="http://www.w3.org/2000/svg" d="m271.585938 146.703125c-5.09375-.722656-10.292969-1.101563-15.585938-1.101563-61.027344 0-110.5 49.472657-110.5 110.5h31.1875c0-55.730468 41.257812-101.816406 94.898438-109.398437zm0 0" fill="#cacfd8" data-original="#cacfd8" style=""/><path xmlns="http://www.w3.org/2000/svg" d="m333.230469 121.261719c-6.226563-3.335938-13.980469-1.128907-17.511719 4.992187l-56.53125 97.910156c9.261719 1.066407 17.367188 5.9375 22.703125 13.011719l56.488281-97.839843c3.691406-6.398438 1.359375-14.582032-5.148437-18.074219zm0 0" fill="#54a0ff" data-original="#54a0ff" style=""/><path xmlns="http://www.w3.org/2000/svg" d="m336.328125 126.253906c.3125-.539062.664063-1.03125 1.035156-1.507812-1.085937-1.394532-2.472656-2.59375-4.132812-3.484375-6.226563-3.335938-13.980469-1.128907-17.511719 4.992187l-56.53125 97.910156c9.261719 1.066407 17.367188 5.9375 22.703125 13.011719l6.300781-10.90625c-.027344-.011719-.054687-.023437-.082031-.03125-4.0625-1.597656-5.835937-6.355469-3.652344-10.136719zm0 0" fill="#338def" data-original="#338def" style="" class=""/><path xmlns="http://www.w3.org/2000/svg" d="m288.980469 256.101562c0 18.214844-14.765625 32.980469-32.980469 32.980469s-32.980469-14.765625-32.980469-32.980469c0-18.214843 14.765625-32.980468 32.980469-32.980468s32.980469 14.765625 32.980469 32.980468zm0 0" fill="#576574" data-original="#576574" style="" class=""/><path xmlns="http://www.w3.org/2000/svg" d="m254.207031 256.101562c0-12.574218 7.035157-23.503906 17.386719-29.066406-4.644531-2.496094-9.953125-3.914062-15.59375-3.914062-18.214844 0-32.980469 14.765625-32.980469 32.980468 0 18.214844 14.765625 32.980469 32.980469 32.980469 5.640625 0 10.949219-1.417969 15.59375-3.914062-10.351562-5.566407-17.386719-16.492188-17.386719-29.066407zm0 0" fill="#3e4b5a" data-original="#3e4b5a" style="" class=""/><path xmlns="http://www.w3.org/2000/svg" d="m256.003906 263.828125c-4.320312 0-7.730468-3.507813-7.730468-7.730469 0-5.003906 4.636718-8.523437 9.234374-7.574218 3.929688.816406 6.226563 4.199218 6.226563 7.574218 0 4.164063-3.386719 7.730469-7.730469 7.730469zm0 0" fill="#36434f" data-original="#36434f" style="" class=""/><g xmlns="http://www.w3.org/2000/svg" fill="#576574"><path d="m256 29.300781c-2.59375 0-5.167969.0625-7.738281.148438v23.042969c0 4.269531 3.460937 7.730468 7.726562 7.730468 4.269531 0 7.730469-3.460937 7.730469-7.730468v-23.042969c-2.5625-.085938-5.132812-.148438-7.71875-.148438zm0 0" fill="#576574" data-original="#576574" style="" class=""/><path d="m147.5 83.636719c2.136719 3.695312 6.863281 4.960937 10.5625 2.828125 3.695312-2.132813 4.960938-6.863282 2.828125-10.558594l-11.546875-19.996094c-4.554688 2.429688-9.015625 5.015625-13.378906 7.746094zm0 0" fill="#576574" data-original="#576574" style="" class=""/><path d="m353.941406 86.464844c3.695313 2.136718 8.421875.867187 10.558594-2.828125l11.535156-19.980469c-4.363281-2.730469-8.824218-5.3125-13.378906-7.746094l-11.546875 19.996094c-2.132813 3.695312-.867187 8.425781 2.832031 10.558594zm0 0" fill="#576574" data-original="#576574" style="" class=""/><path d="m86.363281 158.160156c2.136719-3.695312.871094-8.421875-2.828125-10.558594l-19.980468-11.535156c-2.726563 4.363282-5.3125 8.824219-7.746094 13.378906l19.996094 11.546876c3.695312 2.132812 8.425781.867187 10.558593-2.832032zm0 0" fill="#576574" data-original="#576574" style="" class=""/><path d="m448.445312 136.066406-19.980468 11.535156c-3.695313 2.136719-4.964844 6.863282-2.828125 10.558594 2.132812 3.699219 6.859375 4.964844 10.558593 2.832032l19.996094-11.546876c-2.433594-4.554687-5.015625-9.015624-7.746094-13.378906zm0 0" fill="#576574" data-original="#576574" style="" class=""/></g></g></svg>
