<svg xmlns="http://www.w3.org/2000/svg" xmlns:xlink="http://www.w3.org/1999/xlink" version="1.1" style="" xml:space="preserve" width="475.33599853515625" height="475.33599853515625"><rect id="backgroundrect" width="100%" height="100%" x="0" y="0" fill="none" stroke="none"/>































<g class="currentLayer" style=""><title>Layer 1</title><g id="svg_1" class="" fill="#054044" fill-opacity="1">
	<g id="svg_2" fill="#054044" fill-opacity="1">
		<path d="M398.359,135.04C398.359,135.04,398.358,135.039,398.359,135.04l-54.064-54.064c-25.75-25.75-67.498-25.75-93.248,0    c0,0,0,0,0,0L55.974,276.063c-6.81,6.776-10.629,15.993-10.608,25.6c-0.021,9.607,3.798,18.824,10.608,25.6l96.096,96.096    c14.145,14.123,37.055,14.123,51.2,0l195.088-195.072C424.108,202.538,424.108,160.789,398.359,135.04z M332.982,92.287l1.6,1.6    c-5.796,5.043-13.229,7.807-20.912,7.776c-13.773-0.021-25.992-8.839-30.352-21.904C300.917,74.497,319.985,79.307,332.982,92.287    z M68.126,316.839l-0.872-0.872c-7.876-7.912-7.869-20.705,0.016-28.608l0.856-0.856    C75.486,295.276,75.486,308.067,68.126,316.839z M191.974,412.079c-7.912,7.876-20.705,7.869-28.608-0.016l-0.856-0.856    c8.773-7.36,21.563-7.36,30.336,0L191.974,412.079z M387.046,216.975L204.238,399.783c-15.148-13.487-37.996-13.487-53.144,0    L79.55,328.239c13.487-15.148,13.487-37.996,0-53.144L262.358,92.287c2.048-2.024,4.264-3.871,6.624-5.52    c7.074,18.549,24.836,30.829,44.688,30.896c11.919,0.028,23.413-4.427,32.2-12.48l28.28,28.272    c-8.053,8.79-12.507,20.287-12.48,32.208c0.067,19.852,12.347,37.614,30.896,44.688    C390.921,212.715,389.074,214.931,387.046,216.975z M377.67,165.663c-0.017-7.676,2.762-15.095,7.816-20.872l1.6,1.6    c9.372,9.341,14.622,22.04,14.584,35.272c0.007,4.876-0.7,9.728-2.096,14.4C386.499,191.69,377.68,179.451,377.67,165.663z" id="svg_3" fill="#054044" fill-opacity="1"/>
	</g>
</g><g id="svg_7" class="" fill-opacity="1" fill="#054044">
	<g id="svg_8" fill="#054044">
		<rect x="77.68000030517578" y="376.70098876953125" transform="matrix(0.7071,-0.7071,0.7071,0.7071,-253.274,175.8891) " width="16" height="33.944000244140625" id="svg_9" fill="#054044"/>
	</g>
</g><g id="svg_16" class="" fill-opacity="1" fill="#054044">
	<g id="svg_17" fill="#054044">
		<rect x="381.6730041503906" y="64.71600341796875" transform="matrix(0.7071,-0.7071,0.7071,0.7071,56.3712,299.4674) " width="16" height="33.944000244140625" id="svg_18" fill="#054044"/>
	</g>
</g><g id="svg_25" class="" fill-opacity="1" fill="#054044">
	<g id="svg_26" fill="#054044">
		<rect x="294.35699462890625" y="357.6610107421875" transform="matrix(0.7071,-0.7071,0.7071,0.7071,-169.0334,323.2392) " width="22.624000549316406" height="16" id="svg_27" fill="#054044"/>
	</g>
</g><g id="svg_37" class="" fill-opacity="1" fill="#054044">
	<g id="svg_38" fill="#054044">
		<rect x="110.36299896240234" y="165.66099548339844" transform="matrix(0.7071,-0.7071,0.7071,0.7071,-87.1587,136.9014) " width="22.624000549316406" height="16" id="svg_39" fill="#054044"/>
	</g>
</g><g id="svg_49">
</g><g id="svg_50">
</g><g id="svg_51">
</g><g id="svg_52">
</g><g id="svg_53">
</g><g id="svg_54">
</g><g id="svg_55">
</g><g id="svg_56">
</g><g id="svg_57">
</g><g id="svg_58">
</g><g id="svg_59">
</g><g id="svg_60">
</g><g id="svg_61">
</g><g id="svg_62">
</g><g id="svg_63">
</g><path fill="#054044" stroke-dashoffset="" fill-rule="nonzero" marker-start="" marker-mid="" marker-end="" id="svg_64" d="M220.11337328342412,258.9949145794785 C220.09266328388702,258.9949145794785 220.07587328426231,259.01170457910325 220.07587328426231,259.0324145786403 C220.07587328426231,259.05312957817733 220.11337328342412,259.12301957661515 220.11337328342412,259.12301957661515 S220.15087328258593,259.05312957817733 220.15087328258593,259.0324145786403 C220.15087328258593,259.01170457910325 220.1340882829611,258.9949145794785 220.11337328342412,258.9949145794785 zM220.11337328342412,259.0503345782398 C220.1034782836453,259.0503345782398 220.09545328382467,259.04231457841905 220.09545328382467,259.0324145786403 S220.1034782836453,259.01449457904084 220.11337328342412,259.01449457904084 S220.13129328302358,259.0225195788615 220.13129328302358,259.0324145786403 S220.12326828320295,259.0503345782398 220.11337328342412,259.0503345782398 z" style="color: rgb(5, 64, 68);"/><g class="" transform="rotate(-43.10431671142578 80.86500549316406,131.04069519042972) " id="svg_28"><path fill="#054044" stroke-dashoffset="" fill-rule="nonzero" marker-start="" marker-mid="" marker-end="" id="svg_67" d="M79.68418214321662,55.868422889379076 C76.29371706781433,52.06493821810113 70.85000083694263,52.06493821810113 67.47679484348578,55.88798283160543 C64.11221839100165,59.711027445109835 64.11221839100165,65.90024751066062 67.4940324589113,69.73305284336664 L67.4940324589113,69.71351215305185 C74.9392655324558,78.1613664922271 79.52889333874737,89.74782148227553 79.52889333874737,102.62492462868079 C79.52889333874737,115.49224780397276 74.94787360690873,127.03960216148005 67.51131300737666,135.4874372487435 C64.11221839100165,139.29092192002156 64.11221839100165,145.48016123748403 67.4940324589113,149.3227657932149 C69.17634215167334,151.2293981144104 71.38486064509198,152.18760426056485 73.59342207155032,152.18760426056485 C75.81059157246159,152.18760426056485 78.01915299891994,151.2293981144104 79.70144122516206,149.3227657932149 C90.2437993805961,137.3940888218508 96.78316678372425,120.82106143450119 96.77453724275153,102.62492462868079 C96.78316678372425,84.38968719031902 90.21788929115814,67.79709986074306 79.68418214321662,55.868422889379076 z" style="color: rgb(5, 64, 68);" class="" transform="rotate(-88.35941314697266 80.86501312255858,102.60292816162108) "/><path fill="#054044" stroke-dashoffset="" fill-rule="nonzero" marker-start="" marker-mid="" marker-end="" d="M79.8649098150014,88.42743497115703 C76.93677742176521,85.24419242917043 72.23538056891334,85.24419242917043 69.32215376408408,88.44380523306035 C66.41637975345839,91.64341803695021 66.41637975345839,96.8233491572613 69.33704081320195,100.03113097964041 L69.33704081320195,100.0147768301996 C75.76702243902696,107.08502205138876 79.73079659791745,116.790234940505 79.73079659791745,127.55925705393389 C79.73079659791745,138.32827916736278 75.77445669394149,147.99258251418325 69.35196494089791,155.06281162290986 C66.41637975345839,158.24605416489652 66.41637975345839,163.42600139767006 69.33704081320195,166.64198446346336 C70.78994635780396,168.23769829993245 72.69730549521455,169.03964778364286 74.60470171120346,169.03964778364286 C76.51953218210656,169.03964778364286 78.42692839809547,168.23769829993245 79.87981540340832,166.64198446346336 C88.9845900374196,156.65854157184162 94.63223220406235,142.78811211347977 94.624779409859,127.55925705393389 C94.63223220406235,112.29767758304376 88.96221311552006,98.41087786277888 79.8649098150014,88.42743497115703 z" style="color: rgb(5, 64, 68);" class="" transform="rotate(-88.35941314697266 80.88472747802737,127.54085540771486) " id="svg_4"/><path fill="#054044" stroke-dashoffset="" fill-rule="nonzero" marker-start="" marker-mid="" marker-end="" d="M79.32193204864325,117.62175262151464 C76.76287555735735,115.05463526472323 72.65406539488185,115.05463526472323 70.10803571988936,117.6349543750452 C67.56851945304334,120.21527348536716 67.56851945304334,124.3926149573229 70.12104633367471,126.97952195055831 L70.12104633367471,126.96633319087965 C75.74056212347523,132.6681133677552 79.20472310701939,140.48825523220052 79.20472310701939,149.1795049280285 C79.20472310701939,157.86415374709117 75.74705932911411,165.65790509832726 70.13408935247594,171.35967228135092 C67.56851945304334,173.92678963814245 67.56851945304334,178.1041441039501 70.12104633367471,180.6976649678026 C71.39082066960555,181.98452408458098 73.05776707991106,182.63125408135278 74.72474589523233,182.63125408135278 C76.39822191619237,182.63125408135278 78.06520073151353,181.98452408458098 79.33495886493643,180.6976649678026 C87.29212387656071,172.6465443919812 92.22791003855002,161.46077398992765 92.22139663040332,149.1795049280285 C92.22791003855002,136.87184535292016 87.272567449613,125.67287319733606 79.32193204864325,117.62175262151464 z" style="color: rgb(5, 64, 68);" class="" transform="rotate(-88.35941314697266 80.21321868896487,149.16467285156253) " id="svg_5"/><path fill="#054044" stroke-dashoffset="" fill-rule="nonzero" marker-start="" marker-mid="" marker-end="" d="M79.63769526872738,148.2346013489353 C77.67745330555272,146.7045011303801 74.53009718948829,146.7045011303801 72.57983379147288,148.24247009942655 C70.63455967603704,149.78043906847302 70.63455967603704,152.27029450196517 72.58979994548145,153.81219010142416 L72.58979994548145,153.80432909576598 C76.8943593412589,157.20280835566842 79.54791300459499,161.86391227608897 79.54791300459499,167.0442298116011 C79.54791300459499,172.22061297186758 76.8993362126879,176.86598713613887 72.59979092179151,180.26445865120803 C70.63455967603704,181.79455886976325 70.63455967603704,184.28442204808857 72.58979994548145,185.8302597676264 C73.56244941435011,186.5972770645268 74.83933342022146,186.98275290059973 76.1162422483942,186.98275290059973 C77.39812794799604,186.98275290059973 78.67503677616878,186.5972770645268 79.64767383388676,185.8302597676264 C85.74287681858266,181.03148369294166 89.52369806615388,174.364336321743 89.5187087835742,167.0442298116011 C89.52369806615388,159.70839354530995 85.72789655969302,153.03337742362004 79.63769526872738,148.2346013489353 z" style="color: rgb(5, 64, 68);" class="" transform="rotate(-88.35941314697266 80.32045745849608,167.035400390625) " id="svg_6"/></g><g class="" transform="rotate(136.16175842285156 346.0824279785156,408.4319763183594) " id="svg_40"><path fill="#054044" stroke-dashoffset="" fill-rule="nonzero" marker-start="" marker-mid="" marker-end="" id="svg_41" d="M344.9016008138709,333.2597357269798 C341.5111357384686,329.45625105570184 336.0674195075969,329.45625105570184 332.6942135141401,333.27929566920614 C329.32963706165594,337.10234028271054 329.32963706165594,343.2915603482613 332.7114511295656,347.12436568096734 L332.7114511295656,347.10482499065256 C340.1566842031101,355.5526793298278 344.74631200940166,367.13913431987623 344.74631200940166,380.0162374662815 C344.74631200940166,392.88356064157347 340.165292277563,404.43091499908076 332.72873167803095,412.8787500863442 C329.32963706165594,416.68223475762227 329.32963706165594,422.87147407508473 332.7114511295656,426.7140786308156 C334.39376082232764,428.6207109520111 336.6022793157463,429.57891709816556 338.8108407422046,429.57891709816556 C341.0280102431159,429.57891709816556 343.23657166957423,428.6207109520111 344.91885989581635,426.7140786308156 C355.4612180512504,414.7854016594515 362.00058545437855,398.2123742721019 361.99195591340583,380.0162374662815 C362.00058545437855,361.78100002791973 355.43530796181244,345.18841269834377 344.9016008138709,333.2597357269798 z" style="color: rgb(5, 64, 68);" class="" transform="rotate(-88.35941314697266 346.08239746093744,379.9942321777343) "/><path fill="#054044" stroke-dashoffset="" fill-rule="nonzero" marker-start="" marker-mid="" marker-end="" d="M345.0823284856557,365.81874780875773 C342.1541960924195,362.63550526677113 337.45279923956764,362.63550526677113 334.5395724347384,365.83511807066105 C331.6337984241127,369.0347308745509 331.6337984241127,374.214661994862 334.55445948385625,377.4224438172411 L334.55445948385625,377.4060896678003 C340.98444110968126,384.47633488898947 344.94821526857174,394.1815477781057 344.94821526857174,404.9505698915346 C344.94821526857174,415.7195920049635 340.9918753645958,425.38389535178396 334.5693836115522,432.45412446051057 C331.6337984241127,435.63736700249723 331.6337984241127,440.81731423527077 334.55445948385625,444.03329730106407 C336.00736502845825,445.62901113753315 337.91472416586885,446.43096062124357 339.82212038185776,446.43096062124357 C341.73695085276086,446.43096062124357 343.64434706874977,445.62901113753315 345.0972340740626,444.03329730106407 C354.2020087080739,434.04985440944233 359.84965087471664,420.1794249510805 359.8421980805133,404.9505698915346 C359.84965087471664,389.6889904206445 354.17963178617435,375.8021907003796 345.0823284856557,365.81874780875773 z" style="color: rgb(5, 64, 68);" class="" transform="rotate(-88.35941314697266 346.10217285156244,404.9321594238281) " id="svg_42"/><path fill="#054044" stroke-dashoffset="" fill-rule="nonzero" marker-start="" marker-mid="" marker-end="" d="M344.53935071929754,395.01306545911535 C341.98029422801164,392.44594810232394 337.87148406553615,392.44594810232394 335.32545439054365,395.0262672126459 C332.78593812369763,397.60658632296787 332.78593812369763,401.7839277949236 335.338465004329,404.370834788159 L335.338465004329,404.35764602848036 C340.9579807941295,410.0594262053559 344.4221417776737,417.8795680698012 344.4221417776737,426.5708177656292 C344.4221417776737,435.2554665846919 340.9644779997684,443.04921793592797 335.35150802313024,448.75098511895163 C332.78593812369763,451.31810247574316 332.78593812369763,455.4954569415508 335.338465004329,458.0889778054033 C336.60823934025984,459.3758369221817 338.27518575056536,460.0225669189535 339.9421645658866,460.0225669189535 C341.61564058684667,460.0225669189535 343.2826194021678,459.3758369221817 344.5523775355907,458.0889778054033 C352.509542547215,450.0378572295819 357.4453287092043,438.85208682752835 357.4388153010576,426.5708177656292 C357.4453287092043,414.26315819052087 352.4899861202673,403.06418603493677 344.53935071929754,395.01306545911535 z" style="color: rgb(5, 64, 68);" class="" transform="rotate(-88.35941314697266 345.4306945800781,426.55596923828125) " id="svg_43"/><path fill="#054044" stroke-dashoffset="" fill-rule="nonzero" marker-start="" marker-mid="" marker-end="" d="M344.8551139393817,425.625914186536 C342.894871976207,424.0958139679808 339.7475158601426,424.0958139679808 337.7972524621272,425.63378293702726 C335.85197834669134,427.1717519060737 335.85197834669134,429.6616073395659 337.80721861613574,431.2035029390249 L337.80721861613574,431.1956419333667 C342.1117780119132,434.59412119326913 344.7653316752493,439.2552251136897 344.7653316752493,444.4355426492018 C344.7653316752493,449.6119258094683 342.1167548833422,454.2572999737396 337.8172095924458,457.65577148880874 C335.85197834669134,459.18587170736396 335.85197834669134,461.6757348856893 337.80721861613574,463.2215726052271 C338.7798680850044,463.9885899021275 340.05675209087576,464.37406573820044 341.3336609190485,464.37406573820044 C342.61554661865034,464.37406573820044 343.8924554468231,463.9885899021275 344.86509250454105,463.2215726052271 C350.96029548923696,458.42279653054237 354.7411167368082,451.7556491593437 354.7361274542285,444.4355426492018 C354.7411167368082,437.09970638291065 350.9453152303473,430.42469026122075 344.8551139393817,425.625914186536 z" style="color: rgb(5, 64, 68);" class="" transform="rotate(-88.35941314697266 345.5378723144531,444.4266967773438) " id="svg_44"/></g><g class=""><path fill="#054044" stroke-dashoffset="" fill-rule="nonzero" marker-start="" marker-mid="" marker-end="" d="M433.6513799897908,-0.08536655681996308 C430.72324759655464,-3.2686090988065644 426.02185074370277,-3.2686090988065644 423.1086239388735,-0.06899629491664427 C420.2028499282478,3.130616508973219 420.2028499282478,8.310547629284315 423.1235109879914,11.51832945166342 L423.1235109879914,11.501975302222604 C429.5534926138164,18.572220523411772 433.5172667727069,28.277433412528012 433.5172667727069,39.0464555259569 C433.5172667727069,49.81547763938579 429.5609268687309,59.47978098620627 423.13843511568734,66.55001009493287 C420.2028499282478,69.73325263691953 420.2028499282478,74.91319986969307 423.1235109879914,78.12918293548637 C424.5764165325934,79.72489677195546 426.483775670004,80.52684625566587 428.3911718859929,80.52684625566587 C430.306002356896,80.52684625566587 432.2133985728849,79.72489677195546 433.66628557819774,78.12918293548637 C442.771060212209,68.14574004386463 448.4187023788518,54.27531058550278 448.41124958464843,39.0464555259569 C448.4187023788518,23.784876055066775 442.7486832903095,9.898076334801885 433.6513799897908,-0.08536655681996308 z" style="color: rgb(5, 64, 68);" class="" transform="rotate(-43.05282211303711 434.67120361328125,39.02805328369139) " id="svg_31"/><path fill="#054044" stroke-dashoffset="" fill-rule="nonzero" marker-start="" marker-mid="" marker-end="" d="M417.93573591216864,22.216094853265133 C415.37667942088274,19.64897749647372 411.26786925840725,19.64897749647372 408.72183958341475,22.229296606795685 C406.1823233165687,24.80961571711765 406.1823233165687,28.986957189073394 408.7348501972001,31.573864182308796 L408.7348501972001,31.56067542263014 C414.3543659870006,37.2624555995057 417.8185269705448,45.082597463951004 417.8185269705448,53.773847159778995 C417.8185269705448,62.458495978841654 414.3608631926395,70.25224733007775 408.74789321600133,75.95401451310141 C406.1823233165687,78.52113186989294 406.1823233165687,82.69848633570058 408.7348501972001,85.2920071995531 C410.00462453313094,86.57886631633147 411.67157094343645,87.22559631310327 413.3385497587577,87.22559631310327 C415.01202577971776,87.22559631310327 416.6790045950389,86.57886631633147 417.9487627284618,85.2920071995531 C425.9059277400861,77.24088662373168 430.8417139020754,66.05511622167813 430.8352004939287,53.773847159778995 C430.8417139020754,41.46618758467065 425.8863713131384,30.267215429086548 417.93573591216864,22.216094853265133 z" style="color: rgb(5, 64, 68);" class="" transform="rotate(-43.05282211303711 418.82711791992193,53.75905227661134) " id="svg_32"/><path fill="#054044" stroke-dashoffset="" fill-rule="nonzero" marker-start="" marker-mid="" marker-end="" d="M405.51572223100766,47.60315975576515 C403.555480267833,46.07305953720993 400.40812415176856,46.07305953720993 398.45786075375315,47.61102850625639 C396.5125866383173,49.14899747530285 396.5125866383173,51.638852908795 398.4678269077617,53.180748508254 L398.4678269077617,53.17288750259581 C402.7723863035392,56.57136676249826 405.42593996687526,61.2324706829188 405.42593996687526,66.41278821843093 C405.42593996687526,71.58917137869742 402.7773631749682,76.2345455429687 398.4778178840718,79.63301705803786 C396.5125866383173,81.16311727659308 396.5125866383173,83.6529804549184 398.4678269077617,85.19881817445622 C399.4404763766304,85.96583547135663 400.71736038250174,86.35131130742957 401.9942692106745,86.35131130742957 C403.2761549102763,86.35131130742957 404.55306373844905,85.96583547135663 405.52570079616703,85.19881817445622 C411.62090378086293,80.4000420997715 415.40172502843416,73.73289472857283 415.39673574585447,66.41278821843093 C415.40172502843416,59.07695195213978 411.6059235219733,52.40193583044987 405.51572223100766,47.60315975576515 z" style="color: rgb(5, 64, 68);" class="" transform="rotate(-43.05282211303711 406.1984558105468,66.40399932861328) " id="svg_33"/></g><g class="" id="svg_34" transform="rotate(-176.67620849609375 42.49390029907226,431.1177673339844) "><path fill="#054044" stroke-dashoffset="" fill-rule="nonzero" marker-start="" marker-mid="" marker-end="" d="M46.69484727303973,387.7407340310249 C43.766714879803544,384.5574914890383 39.06531802695167,384.5574914890383 36.15209122212241,387.7571042929282 C33.24631721149672,390.95671709681807 33.24631721149672,396.13664821712916 36.16697827124028,399.34443003950827 L36.16697827124028,399.32807589006745 C42.59695989706529,406.3983211112566 46.56073405595578,416.10353400037286 46.56073405595578,426.87255611380175 C46.56073405595578,437.64157822723064 42.60439415197982,447.3058815740511 36.181902398936245,454.3761106827777 C33.24631721149672,457.5593532247644 33.24631721149672,462.7393004575379 36.16697827124028,465.9552835233312 C37.619883815842286,467.5509973598003 39.52724295325288,468.3529468435107 41.43463916924179,468.3529468435107 C43.34946964014489,468.3529468435107 45.2568658561338,467.5509973598003 46.709752861446646,465.9552835233312 C55.814527495457924,455.9718406317095 61.46216966210068,442.1014111733476 61.45471686789733,426.87255611380175 C61.46216966210068,411.6109766429116 55.79215057355839,397.72417692264673 46.69484727303973,387.7407340310249 z" style="color: rgb(5, 64, 68);" class="" transform="rotate(-43.05282211303711 47.71466445922852,426.85418701171875) " id="svg_35"/><path fill="#054044" stroke-dashoffset="" fill-rule="nonzero" marker-start="" marker-mid="" marker-end="" d="M30.97920319541754,410.04219544111 C28.42014670413164,407.47507808431857 24.311336541656146,407.47507808431857 21.76530686666365,410.05539719464053 C19.22579059981763,412.6357163049625 19.22579059981763,416.81305777691824 21.778317480449005,419.39996477015364 L21.778317480449005,419.386776010475 C27.39783327024952,425.08855618735055 30.861994253793682,432.90869805179585 30.861994253793682,441.59994774762384 C30.861994253793682,450.2845965666865 27.4043304758884,458.0783479179226 21.79136049925023,463.78011510094626 C19.22579059981763,466.3472324577378 19.22579059981763,470.5245869235454 21.778317480449005,473.11810778739795 C23.048091816379838,474.4049669041763 24.71503822668535,475.0516969009481 26.382017042006623,475.0516969009481 C28.05549306296666,475.0516969009481 29.72247187828782,474.4049669041763 30.992230011710717,473.11810778739795 C38.949395023335,465.06698721157653 43.88518118532431,453.881216809523 43.87866777717761,441.59994774762384 C43.88518118532431,429.2922881725155 38.9298385963873,418.0933160169314 30.97920319541754,410.04219544111 z" style="color: rgb(5, 64, 68);" class="" transform="rotate(-43.05282211303711 31.87054634094216,441.5851440429687) " id="svg_36"/><path fill="#054044" stroke-dashoffset="" fill-rule="nonzero" marker-start="" marker-mid="" marker-end="" d="M18.55918951425656,435.42926034361 C16.598947551081892,433.8991601250548 13.451591435017463,433.8991601250548 11.501328037002054,435.43712909410124 C9.556053921566217,436.9750980631477 9.556053921566217,439.46495349663985 11.51129419101062,441.00684909609885 L11.51129419101062,440.99898809044066 C15.81585358678808,444.3974673503431 18.469407250124164,449.05857127076365 18.469407250124164,454.2388888062758 C18.469407250124164,459.41527196654226 15.820830458217074,464.06064613081355 11.521285167320684,467.4591176458827 C9.556053921566217,468.98921786443793 9.556053921566217,471.47908104276326 11.51129419101062,473.02491876230107 C12.483943659879287,473.7919360592015 13.76082766575064,474.1774118952744 15.037736493923376,474.1774118952744 C16.31962219352522,474.1774118952744 17.596531021697956,473.7919360592015 18.56916807941593,473.02491876230107 C24.664371064111833,468.22614268761635 28.44519231168306,461.5589953164177 28.440203029103373,454.2388888062758 C28.44519231168306,446.9030525399846 24.649390805222197,440.2280364182947 18.55918951425656,435.42926034361 z" style="color: rgb(5, 64, 68);" class="" transform="rotate(-43.05282211303711 19.241884231567216,454.23007202148426) " id="svg_45"/></g></g></svg>