<svg xmlns="http://www.w3.org/2000/svg" xmlns:xlink="http://www.w3.org/1999/xlink" version="1.1" style="" xml:space="preserve" width="475.336" height="475.336"><rect id="backgroundrect" width="100%" height="100%" x="0" y="0" fill="none" stroke="none"/>































<g class="currentLayer" style=""><title>Layer 1</title><g id="svg_1" class="" fill="#054044" fill-opacity="1">
	<g id="svg_2" fill="#054044" fill-opacity="1">
		<path d="M398.359,135.04C398.359,135.04,398.358,135.039,398.359,135.04l-54.064-54.064c-25.75-25.75-67.498-25.75-93.248,0    c0,0,0,0,0,0L55.974,276.063c-6.81,6.776-10.629,15.993-10.608,25.6c-0.021,9.607,3.798,18.824,10.608,25.6l96.096,96.096    c14.145,14.123,37.055,14.123,51.2,0l195.088-195.072C424.108,202.538,424.108,160.789,398.359,135.04z M332.982,92.287l1.6,1.6    c-5.796,5.043-13.229,7.807-20.912,7.776c-13.773-0.021-25.992-8.839-30.352-21.904C300.917,74.497,319.985,79.307,332.982,92.287    z M68.126,316.839l-0.872-0.872c-7.876-7.912-7.869-20.705,0.016-28.608l0.856-0.856    C75.486,295.276,75.486,308.067,68.126,316.839z M191.974,412.079c-7.912,7.876-20.705,7.869-28.608-0.016l-0.856-0.856    c8.773-7.36,21.563-7.36,30.336,0L191.974,412.079z M387.046,216.975L204.238,399.783c-15.148-13.487-37.996-13.487-53.144,0    L79.55,328.239c13.487-15.148,13.487-37.996,0-53.144L262.358,92.287c2.048-2.024,4.264-3.871,6.624-5.52    c7.074,18.549,24.836,30.829,44.688,30.896c11.919,0.028,23.413-4.427,32.2-12.48l28.28,28.272    c-8.053,8.79-12.507,20.287-12.48,32.208c0.067,19.852,12.347,37.614,30.896,44.688    C390.921,212.715,389.074,214.931,387.046,216.975z M377.67,165.663c-0.017-7.676,2.762-15.095,7.816-20.872l1.6,1.6    c9.372,9.341,14.622,22.04,14.584,35.272c0.007,4.876-0.7,9.728-2.096,14.4C386.499,191.69,377.68,179.451,377.67,165.663z" id="svg_3" fill="#054044" fill-opacity="1"/>
	</g>
</g><g id="svg_7" class="" fill-opacity="1" fill="#054044">
	<g id="svg_8" fill="#054044">
		<rect x="77.68000030517578" y="376.70098876953125" transform="matrix(0.7071,-0.7071,0.7071,0.7071,-253.274,175.8891) " width="16" height="33.944000244140625" id="svg_9" fill="#054044"/>
	</g>
</g><g id="svg_10" class="" fill-opacity="1" fill="#054044">
	<g id="svg_11" fill="#054044">
		<rect x="53.66600036621094" y="389.3760070800781" transform="matrix(0.7071,-0.7071,0.7071,0.7071,-277.2662,165.933) " width="16" height="56.560001373291016" id="svg_12" fill="#054044"/>
	</g>
</g><g id="svg_13" class="" fill-opacity="1" fill="#054044">
	<g id="svg_14" fill="#054044">
		<rect x="29.66900062561035" y="402.02801513671875" transform="matrix(0.7071,-0.7071,0.7071,0.7071,-301.2428,155.9845) " width="16" height="79.19200134277344" id="svg_15" fill="#054044"/>
	</g>
</g><g id="svg_16" class="" fill-opacity="1" fill="#054044">
	<g id="svg_17" fill="#054044">
		<rect x="381.6730041503906" y="64.71600341796875" transform="matrix(0.7071,-0.7071,0.7071,0.7071,56.3712,299.4674) " width="16" height="33.944000244140625" id="svg_18" fill="#054044"/>
	</g>
</g><g id="svg_19" class="" fill-opacity="1" fill="#054044">
	<g id="svg_20" fill="#054044">
		<rect x="405.6650085449219" y="29.378000259399414" transform="matrix(0.7071,-0.7071,0.7071,0.7071,80.3885,309.392) " width="16" height="56.560001373291016" id="svg_21" fill="#054044"/>
	</g>
</g><g id="svg_22" class="" fill-opacity="1" fill="#054044">
	<g id="svg_23" fill="#054044">
		<rect x="429.6679992675781" y="-5.940999984741211" transform="matrix(0.7071,-0.7071,0.7071,0.7071,104.3918,319.3353) " width="16" height="79.19200134277344" id="svg_24" fill="#054044"/>
	</g>
</g><g id="svg_25" class="" fill-opacity="1" fill="#054044">
	<g id="svg_26" fill="#054044">
		<rect x="294.35699462890625" y="357.6610107421875" transform="matrix(0.7071,-0.7071,0.7071,0.7071,-169.0334,323.2392) " width="22.624000549316406" height="16" id="svg_27" fill="#054044"/>
	</g>
</g><g id="svg_28" class="" fill-opacity="1" fill="#054044">
	<g id="svg_29" fill="#054044">
		<rect x="306.99700927734375" y="381.6700134277344" transform="matrix(0.7071,-0.7071,0.7071,0.7071,-178.9933,347.212) " width="45.25600051879883" height="16" id="svg_30" fill="#054044"/>
	</g>
</g><g id="svg_31" class="" fill-opacity="1" fill="#054044">
	<g id="svg_32" fill="#054044">
		<rect x="319.7279968261719" y="405.66400146484375" transform="matrix(0.7071,-0.7071,0.7071,0.7071,-188.9178,371.2411) " width="67.87999725341797" height="16" id="svg_33" fill="#054044"/>
	</g>
</g><g id="svg_34" class="" fill-opacity="1" fill="#054044">
	<g id="svg_35" fill="#054044">
		<rect x="332.40301513671875" y="429.6780090332031" transform="matrix(0.7071,-0.7071,0.7071,0.7071,-198.8715,395.2386) " width="90.51200103759766" height="16" id="svg_36" fill="#054044"/>
	</g>
</g><g id="svg_37" class="" fill-opacity="1" fill="#054044">
	<g id="svg_38" fill="#054044">
		<rect x="110.36299896240234" y="165.66099548339844" transform="matrix(0.7071,-0.7071,0.7071,0.7071,-87.1587,136.9014) " width="22.624000549316406" height="16" id="svg_39" fill="#054044"/>
	</g>
</g><g id="svg_40" class="" fill-opacity="1" fill="#054044">
	<g id="svg_41" fill="#054044">
		<rect x="75.04499816894531" y="141.6580047607422" transform="matrix(0.7071,-0.7071,0.7071,0.7071,-77.2163,112.8988) " width="45.25600051879883" height="16" id="svg_42" fill="#054044"/>
	</g>
</g><g id="svg_43" class="" fill-opacity="1" fill="#054044">
	<g id="svg_44" fill="#054044">
		<rect x="39.72999954223633" y="117.66300201416016" transform="matrix(0.7071,-0.7071,0.7071,0.7071,-67.2801,88.8984) " width="67.87999725341797" height="16" id="svg_45" fill="#054044"/>
	</g>
</g><g id="svg_46" class="" fill-opacity="1" fill="#054044">
	<g id="svg_47" fill="#054044">
		<rect x="4.410999774932861" y="93.66100311279297" transform="matrix(0.7071,-0.7071,0.7071,0.7071,-57.3377,64.8959) " width="90.51200103759766" height="16" id="svg_48" fill="#054044"/>
	</g>
</g><g id="svg_49">
</g><g id="svg_50">
</g><g id="svg_51">
</g><g id="svg_52">
</g><g id="svg_53">
</g><g id="svg_54">
</g><g id="svg_55">
</g><g id="svg_56">
</g><g id="svg_57">
</g><g id="svg_58">
</g><g id="svg_59">
</g><g id="svg_60">
</g><g id="svg_61">
</g><g id="svg_62">
</g><g id="svg_63">
</g></g></svg>